<svg enable-background="new 0 0 24 24" height="512" viewBox="0 0 24 24" width="512" xmlns="http://www.w3.org/2000/svg"><path d="m19.501 18c-.027 0-.055-.002-.083-.007-.272-.045-.456-.303-.411-.575l.77-4.64c.105-.613-.181-1.234-.711-1.548l-4.349-2.549c-.238-.14-.318-.446-.179-.685.141-.238.448-.316.685-.179l4.351 2.55c.887.524 1.363 1.56 1.189 2.577l-.77 4.637c-.04.245-.252.419-.492.419z"/><path d="m4.499 18c-.24 0-.452-.174-.492-.418l-.77-4.64c-.174-1.015.303-2.05 1.188-2.573l4.393-2.58c.233-.14.543-.062.684.178.14.237.06.544-.179.683l-4.391 2.58c-.528.313-.814.935-.709 1.545l.77 4.643c.045.272-.139.53-.411.575-.028.005-.056.007-.083.007z"/><path d="m11.996 24c-.071 0-.144-.016-.211-.047l-5.496-2.554c-.176-.082-.289-.258-.289-.453v-5.893c0-.171.087-.33.231-.422.143-.092.323-.104.479-.031l5.496 2.554c.176.082.289.259.289.453v5.893c0 .171-.087.33-.231.422-.08.052-.174.078-.268.078zm-4.996-3.373 4.496 2.09v-4.79l-4.496-2.09z"/><path d="m12.004 24c-.094 0-.188-.026-.269-.078-.145-.092-.231-.251-.231-.422v-5.893c0-.194.113-.371.289-.453l5.496-2.554c.155-.072.336-.061.479.031.145.093.232.252.232.423v5.893c0 .194-.113.371-.289.453l-5.496 2.554c-.068.03-.14.046-.211.046zm.5-6.073v4.79l4.496-2.09v-4.79zm4.996 3.019h.01z"/><path d="m17.5 15.554c-.071 0-.143-.015-.211-.047l-5.285-2.456-5.294 2.456c-.248.119-.548.008-.663-.243-.116-.25-.008-.547.243-.663l5.504-2.554c.133-.062.286-.062.421 0l5.496 2.554c.25.116.358.413.242.664-.084.181-.265.289-.453.289z"/><path d="m15 19c-.276 0-.5-.224-.5-.5v-1.96l-5.155-2.459c-.25-.119-.355-.417-.236-.666s.418-.355.666-.236l5.407 2.578c.185.075.318.254.318.463v2.28c0 .276-.224.5-.5.5z"/><path d="m3.569 8h-1c-.827 0-1.5-.673-1.5-1.5v-2c0-.827.673-1.5 1.5-1.5h1c.827 0 1.5.673 1.5 1.5v2c0 .827-.673 1.5-1.5 1.5zm-1-4c-.275 0-.5.225-.5.5v2c0 .275.225.5.5.5h1c.275 0 .5-.225.5-.5v-2c0-.275-.225-.5-.5-.5z"/><path d="m5.5 1h-5c-.276 0-.5-.224-.5-.5s.224-.5.5-.5h5c.276 0 .5.224.5.5s-.224.5-.5.5z"/><path d="m3 4c-.276 0-.5-.224-.5-.5v-3c0-.276.224-.5.5-.5s.5.224.5.5v3c0 .276-.224.5-.5.5z"/><path d="m21.569 8h-1c-.827 0-1.5-.673-1.5-1.5v-2c0-.827.673-1.5 1.5-1.5h1c.827 0 1.5.673 1.5 1.5v2c0 .827-.673 1.5-1.5 1.5zm-1-4c-.275 0-.5.225-.5.5v2c0 .275.225.5.5.5h1c.275 0 .5-.225.5-.5v-2c0-.275-.225-.5-.5-.5z"/><path d="m23.5 1h-5c-.276 0-.5-.224-.5-.5s.224-.5.5-.5h5c.276 0 .5.224.5.5s-.224.5-.5.5z"/><path d="m21 4c-.276 0-.5-.224-.5-.5v-3c0-.276.224-.5.5-.5s.5.224.5.5v3c0 .276-.224.5-.5.5z"/><path d="m12.07 10c-1.676 0-3.17-.863-3.969-2.253-.265-.461-.759-.747-1.289-.747h-2.242c-.276 0-.5-.224-.5-.5s.224-.5.5-.5h2.241c.887 0 1.713.479 2.157 1.248.622 1.081 1.783 1.752 3.032 1.752 1.318 0 2.479-.671 3.102-1.751.442-.77 1.269-1.249 2.157-1.249h1.741v-1h-1.741c-.888 0-1.715-.479-2.157-1.249-.623-1.08-1.784-1.751-3.032-1.751-1.319 0-2.48.671-3.102 1.751-.444.77-1.27 1.249-2.156 1.249h-2.242c-.276 0-.5-.224-.5-.5s.224-.5.5-.5h2.241c.53 0 1.024-.286 1.29-.748.799-1.389 2.294-2.252 3.899-2.252 1.675 0 3.169.863 3.969 2.253.264.461.759.747 1.29.747h2.241c.276 0 .5.224.5.5v2c0 .276-.224.5-.5.5h-2.241c-.531 0-1.025.286-1.29.747-.8 1.39-2.294 2.253-3.899 2.253z"/></svg>